<?xml version="1.0" standalone="no"?>
<!DOCTYPE svg PUBLIC "-//W3C//DTD SVG 20010904//EN"
 "http://www.w3.org/TR/2001/REC-SVG-20010904/DTD/svg10.dtd">
<svg version="1.0" xmlns="http://www.w3.org/2000/svg"
 width="500.000000pt" height="500.000000pt" viewBox="0 0 500.000000 500.000000"
 preserveAspectRatio="xMidYMid meet">
<metadata>
Created by potrace 1.14, written by Peter Selinger 2001-2017
</metadata>
<g transform="translate(0.000000,500.000000) scale(0.100000,-0.100000)"
fill="#000000" stroke="none">
<path d="M2518 4925 c-2 -2 -58 -7 -124 -10 -183 -8 -223 -13 -354 -40 -41 -9
-86 -18 -100 -21 -14 -3 -34 -8 -45 -11 -11 -4 -22 -7 -25 -8 -3 -1 -32 -9
-65 -20 -33 -10 -64 -19 -70 -21 -5 -1 -23 -8 -40 -15 -16 -6 -37 -13 -45 -15
-8 -2 -23 -7 -35 -13 -11 -5 -56 -26 -100 -46 -106 -49 -136 -64 -160 -78
-108 -64 -174 -106 -193 -124 -7 -7 -17 -13 -21 -13 -4 0 -16 -8 -27 -17 -10
-10 -42 -35 -69 -55 -126 -95 -284 -252 -399 -396 -6 -7 -19 -22 -28 -33 -10
-10 -18 -23 -18 -28 0 -5 -3 -11 -8 -13 -11 -5 -122 -174 -122 -187 0 -6 -4
-11 -8 -11 -8 0 -100 -178 -147 -285 -69 -156 -150 -452 -171 -615 -3 -30 -8
-64 -11 -75 -2 -11 -6 -108 -7 -215 -3 -176 0 -236 19 -380 3 -25 8 -62 10
-84 3 -21 7 -41 9 -45 2 -3 7 -26 11 -51 4 -24 13 -62 20 -84 8 -23 16 -52 18
-66 2 -14 7 -33 10 -42 4 -10 10 -26 14 -35 3 -10 8 -29 10 -43 2 -13 8 -29
12 -35 4 -5 16 -32 26 -60 10 -27 28 -74 41 -103 13 -29 24 -57 24 -61 0 -5 3
-11 8 -13 4 -2 27 -43 52 -93 46 -93 98 -177 112 -183 4 -2 8 -9 8 -16 0 -6
13 -27 30 -46 16 -19 29 -41 30 -47 0 -7 3 -13 8 -13 4 0 14 -11 22 -24 26
-43 112 -138 220 -246 108 -109 136 -134 205 -185 22 -17 42 -33 45 -37 7 -9
138 -98 145 -98 3 0 11 -5 18 -11 52 -46 418 -220 495 -235 13 -3 42 -11 65
-18 54 -18 176 -45 232 -52 23 -2 54 -7 66 -9 129 -25 550 -25 674 0 17 4 46
8 65 10 19 2 35 4 35 5 0 1 11 3 25 6 58 9 126 27 136 35 6 5 13 6 16 3 6 -5
52 8 203 59 91 30 344 147 413 190 20 13 41 24 46 25 5 0 13 7 18 16 5 9 13
16 19 16 5 0 37 19 70 43 33 23 70 49 82 57 12 8 32 25 45 38 12 13 22 21 22
18 0 -12 236 216 316 305 69 77 224 298 224 319 0 5 3 10 8 10 4 0 12 10 18
23 6 12 23 43 38 70 14 26 23 47 19 47 -4 0 -3 4 3 8 21 13 103 212 139 337
13 44 31 107 41 140 10 33 17 63 16 66 0 3 8 54 18 114 11 59 23 139 27 178 9
89 9 384 0 452 -4 28 -9 70 -11 95 -4 52 -23 154 -40 228 -36 146 -68 255 -89
303 -8 19 -22 54 -31 78 -54 142 -197 394 -305 536 -92 122 -224 264 -332 358
-54 48 -265 207 -274 207 -3 0 -11 5 -18 10 -38 32 -326 185 -348 185 -4 0
-11 3 -15 8 -4 4 -16 7 -26 7 -10 0 -18 5 -18 10 0 6 -3 9 -7 8 -5 -1 -51 12
-104 30 -52 18 -104 35 -115 37 -32 8 -147 35 -174 40 -14 3 -36 7 -49 10 -14
2 -47 7 -75 10 -28 3 -66 8 -84 11 -18 3 -68 7 -111 8 -43 2 -83 6 -88 9 -6 4
-12 4 -15 2z"/>
</g>
</svg>
